<mxfile host="app.diagrams.net" modified="2024-02-20T05:02:23.287Z" agent="Mozilla/5.0 (Windows NT 10.0; Win64; x64) AppleWebKit/537.36 (KHTML, like Gecko) Chrome/121.0.0.0 Safari/537.36" version="23.1.5" etag="KNrsmHQQpJsLEfonzbPl" type="github">
  <diagram name="페이지-1" id="tYGVLO8Xvy3lW2VP7DXX">
    <mxGraphModel>
      <root>
        <mxCell id="0" />
        <mxCell id="1" parent="0" />
      </root>
    </mxGraphModel>
  </diagram>
</mxfile>
